<svg xmlns="http://www.w3.org/2000/svg" width="220" height="220" viewBox="0 0 220 220" version="1.1"><path d="M 0.054 25.250 L 0.107 50.500 2.364 43 C 8.768 21.719, 21.719 8.768, 43 2.364 L 50.500 0.107 25.250 0.054 L 0 0 0.054 25.250 M 176 1.896 C 196.767 7.569, 213.531 24.474, 218.424 44.678 C 219.758 50.190, 219.838 49.156, 219.917 25.250 L 220 0 194.750 0.060 L 169.500 0.120 176 1.896 M 62.059 23.556 C 52.095 25.716, 45.297 29.547, 37.448 37.423 C 30.370 44.526, 26.288 51.379, 23.832 60.282 C 23.052 63.109, 22.525 80.493, 22.234 113 C 21.721 170.319, 21.776 168, 20.936 168 C 20.172 168, 17 160.068, 17 158.158 C 17 157.456, 16.534 157.170, 15.963 157.523 C 15.393 157.875, 11.815 154.977, 8.012 151.082 C 4.208 147.187, 0.850 144, 0.548 144 C 0.247 144, 0 161.100, 0 182 L 0 220 37.406 220 C 72.551 220, 74.783 219.894, 74.325 218.250 C 74.057 217.287, 71.624 214.780, 68.919 212.677 C 63.789 208.690, 62.780 206.465, 65.750 205.689 C 67.417 205.254, 67.417 205.226, 65.750 205.116 C 64.787 205.052, 64 204.316, 64 203.480 C 64 202.416, 63.270 202.093, 61.561 202.403 C 59.971 202.692, 59.279 202.437, 59.572 201.673 C 59.908 200.798, 72.641 200.500, 109.761 200.500 C 156.024 200.500, 159.884 200.367, 165 198.601 C 183.077 192.358, 196.711 177.117, 199.916 159.566 C 201.645 150.099, 201.331 70.224, 199.531 61.730 C 195.411 42.288, 178.411 26.056, 159 23.029 C 148.656 21.416, 69.955 21.843, 62.059 23.556 M 65 35.936 C 54.178 38.118, 43.909 46.315, 38.724 56.911 L 35.500 63.500 35.500 111 L 35.500 158.500 38.576 165.005 C 44.039 176.558, 53.833 184.484, 65.821 187.055 C 68.800 187.694, 87.328 187.971, 115.049 187.790 L 159.500 187.500 166 184.419 C 174.339 180.467, 180.457 174.363, 184.382 166.081 L 187.500 159.500 187.500 111.500 L 187.500 63.500 184.840 57.825 C 181.643 51.006, 175.226 43.803, 169.205 40.274 C 160.839 35.371, 156.902 35.023, 111 35.131 C 87.625 35.185, 66.925 35.548, 65 35.936 M 154.923 56.923 C 151.298 60.548, 151.196 63.891, 154.589 67.923 C 161.054 75.607, 172.105 67.908, 167.890 58.657 C 165.540 53.500, 159.195 52.651, 154.923 56.923 M 101.500 71.424 C 94.005 73.304, 89.359 75.544, 83.838 79.940 C 77.266 85.173, 73.398 90.093, 69.641 98 C 66.968 103.625, 66.502 105.846, 66.177 114.500 C 65.730 126.367, 67.772 133.829, 73.957 142.937 C 82.013 154.800, 94.582 161.943, 108.826 162.753 C 128.778 163.888, 145.282 154.361, 153.984 136.685 C 170.981 102.159, 138.750 62.082, 101.500 71.424 M 101.116 84.943 C 94.721 87.321, 92.372 88.782, 88.149 93.005 C 71.464 109.690, 76.909 137.994, 98.653 147.610 C 106.333 151.006, 118.343 150.985, 125.695 147.562 C 140.188 140.814, 148.433 124.732, 145.023 109.860 C 142.549 99.070, 135.337 90.248, 125.392 85.849 C 118.601 82.845, 107.836 82.443, 101.116 84.943 M 19.500 161 C 19.840 161.550, 20.316 162, 20.559 162 C 20.802 162, 21 161.550, 21 161 C 21 160.450, 20.523 160, 19.941 160 C 19.359 160, 19.160 160.450, 19.500 161 M 22.505 162.992 C 22.168 163.538, 22.352 164.775, 22.915 165.742 C 23.794 167.250, 23.944 167.109, 23.970 164.750 C 24.001 161.874, 23.539 161.319, 22.505 162.992 M 218.038 175.750 C 213.499 196.135, 196.211 213.353, 175.150 218.462 C 169.877 219.742, 171.185 219.839, 194.750 219.917 L 220 220 220 195 C 220 181.250, 219.847 170, 219.659 170 C 219.472 170, 218.742 172.588, 218.038 175.750 M 26 172.882 C 26 173.432, 26.450 174.160, 27 174.500 C 27.550 174.840, 28 174.668, 28 174.118 C 28 173.568, 27.550 172.840, 27 172.500 C 26.450 172.160, 26 172.332, 26 172.882" stroke="none" fill="#f7ecd7" fill-rule="evenodd"/><path d="M 43 2.364 C 21.430 8.855, 8.016 22.533, 2.028 44.141 C 0.127 51.002, 0 54.321, 0 97.242 L 0 143.024 7.484 150.581 C 11.600 154.737, 15.425 157.855, 15.984 157.510 C 16.543 157.165, 17 157.456, 17 158.158 C 17 160.068, 20.172 168, 20.936 168 C 21.776 168, 21.721 170.319, 22.234 113 C 22.692 61.820, 22.781 60.807, 27.696 50.282 C 31.193 42.793, 42.542 31.297, 50.017 27.670 C 60.648 22.512, 65.794 22.036, 111 22.025 C 134.151 22.019, 155.374 22.463, 159 23.029 C 178.411 26.056, 195.411 42.288, 199.531 61.730 C 201.331 70.224, 201.645 150.099, 199.916 159.566 C 196.711 177.117, 183.077 192.358, 165 198.601 C 159.884 200.367, 156.024 200.500, 109.761 200.500 C 72.641 200.500, 59.908 200.798, 59.572 201.673 C 59.279 202.437, 59.971 202.692, 61.561 202.403 C 63.226 202.101, 64 202.420, 64 203.407 C 64 204.203, 64.787 205.059, 65.750 205.311 C 67.417 205.746, 67.417 205.774, 65.750 205.884 C 62.637 206.090, 63.884 208.764, 68.919 212.677 C 71.624 214.780, 74.057 217.287, 74.325 218.250 C 74.781 219.885, 77.888 219.999, 121.656 219.985 C 172.897 219.969, 175.171 219.763, 187.196 214.057 C 202.468 206.810, 213.394 193.226, 218.207 175.500 C 219.941 169.118, 220.161 163.211, 220.700 108.601 C 221.074 70.756, 220.942 48.918, 220.340 49.290 C 219.816 49.614, 218.877 47.447, 218.254 44.475 C 215.222 30.018, 202.308 13.647, 188.500 6.756 C 174.941 -0.011, 175.003 -0.006, 109.436 0.054 C 51.222 0.107, 50.408 0.135, 43 2.364 M 65 35.936 C 54.178 38.118, 43.909 46.315, 38.724 56.911 L 35.500 63.500 35.500 111 L 35.500 158.500 38.576 165.005 C 44.039 176.558, 53.833 184.484, 65.821 187.055 C 68.800 187.694, 87.328 187.971, 115.049 187.790 L 159.500 187.500 166 184.419 C 174.339 180.467, 180.457 174.363, 184.382 166.081 L 187.500 159.500 187.500 111.500 L 187.500 63.500 184.840 57.825 C 181.643 51.006, 175.226 43.803, 169.205 40.274 C 160.839 35.371, 156.902 35.023, 111 35.131 C 87.625 35.185, 66.925 35.548, 65 35.936 M 0.462 97 C 0.462 123.125, 0.591 133.813, 0.749 120.750 C 0.907 107.688, 0.907 86.313, 0.749 73.250 C 0.591 60.188, 0.462 70.875, 0.462 97 M 154.923 56.923 C 151.298 60.548, 151.196 63.891, 154.589 67.923 C 161.054 75.607, 172.105 67.908, 167.890 58.657 C 165.540 53.500, 159.195 52.651, 154.923 56.923 M 101.500 71.424 C 94.005 73.304, 89.359 75.544, 83.838 79.940 C 77.266 85.173, 73.398 90.093, 69.641 98 C 66.968 103.625, 66.502 105.846, 66.177 114.500 C 65.730 126.367, 67.772 133.829, 73.957 142.937 C 82.013 154.800, 94.582 161.943, 108.826 162.753 C 128.778 163.888, 145.282 154.361, 153.984 136.685 C 170.981 102.159, 138.750 62.082, 101.500 71.424 M 101.116 84.943 C 94.721 87.321, 92.372 88.782, 88.149 93.005 C 71.464 109.690, 76.909 137.994, 98.653 147.610 C 106.333 151.006, 118.343 150.985, 125.695 147.562 C 140.188 140.814, 148.433 124.732, 145.023 109.860 C 142.549 99.070, 135.337 90.248, 125.392 85.849 C 118.601 82.845, 107.836 82.443, 101.116 84.943 M 19.500 161 C 19.840 161.550, 20.316 162, 20.559 162 C 20.802 162, 21 161.550, 21 161 C 21 160.450, 20.523 160, 19.941 160 C 19.359 160, 19.160 160.450, 19.500 161 M 22.505 162.992 C 22.168 163.538, 22.352 164.775, 22.915 165.742 C 23.794 167.250, 23.944 167.109, 23.970 164.750 C 24.001 161.874, 23.539 161.319, 22.505 162.992 M 26 172.882 C 26 173.432, 26.450 174.160, 27 174.500 C 27.550 174.840, 28 174.668, 28 174.118 C 28 173.568, 27.550 172.840, 27 172.500 C 26.450 172.160, 26 172.332, 26 172.882" stroke="none" fill="#d22e45" fill-rule="evenodd"/></svg>