<svg xmlns="http://www.w3.org/2000/svg" width="920" height="500" viewBox="0 0 920 500" version="1.1"><path d="M 113.400 128.400 L 110 131.800 110 249.977 L 110 368.154 112.923 371.077 L 115.846 374 133.969 374 C 151.876 374, 152.120 373.971, 154.545 371.545 L 157 369.091 157 319.045 L 157 269 198.566 269 C 228.249 269, 240.756 268.667, 242.316 267.837 C 246.694 265.505, 246.935 264.331, 246.968 245.205 C 247 227.094, 246.975 226.884, 244.545 224.455 L 242.091 222 199.528 222 L 156.965 222 157.233 197.250 L 157.500 172.500 200.339 172 L 243.178 171.500 245.089 169.139 C 246.815 167.007, 247 165.004, 247 148.478 L 247 130.178 243.923 127.589 L 240.847 125 178.823 125 L 116.800 125 113.400 128.400 M 294.107 127.563 L 291.060 130.127 290.780 158.064 C 290.626 173.430, 290.753 186.001, 291.062 186.001 C 291.370 186, 294.043 183.075, 297 179.500 L 302.377 173 315.787 173 C 330.570 173, 334.827 171.870, 336.861 167.405 C 338.612 163.564, 338.382 133.638, 336.575 130.145 C 334.246 125.641, 331.375 125, 313.530 125 C 297.413 125, 297.105 125.041, 294.107 127.563 M 392.775 126.559 C 391.276 127.372, 389.589 128.900, 389.025 129.953 C 387.479 132.841, 387.614 366.407, 389.163 369.316 C 391.682 374.045, 390.164 373.935, 453.295 373.968 L 513.091 374 515.545 371.545 C 517.970 369.121, 518 368.868, 518 351.101 C 518 333.528, 517.944 333.047, 515.588 330.306 L 513.175 327.500 474.088 327.206 L 435 326.912 435 229.906 C 435 124.534, 435.225 128.790, 429.528 126.195 C 425.503 124.361, 396.292 124.650, 392.775 126.559 M 566.500 125.912 C 565.400 126.381, 563.600 127.764, 562.500 128.987 C 560.524 131.184, 560.500 132.618, 560.500 250.192 L 560.500 369.173 563.306 371.587 C 566.047 373.944, 566.526 374, 584.101 374 C 601.868 374, 602.121 373.970, 604.545 371.545 L 607 369.091 607 250.101 L 607 131.112 604.589 128.306 L 602.178 125.500 585.339 125.280 C 576.077 125.159, 567.600 125.443, 566.500 125.912 M 663.775 126.518 C 662.276 127.354, 660.589 128.900, 660.025 129.953 C 659.341 131.230, 659 171.379, 659 250.480 L 659 369.091 661.455 371.545 C 663.879 373.970, 664.132 374, 681.899 374 C 699.472 374, 699.953 373.944, 702.694 371.587 L 705.500 369.174 705.779 323.587 L 706.059 278 720.569 278 C 756.388 278, 772.199 273.017, 788.530 256.582 C 801.492 243.538, 808.144 227.271, 809.634 204.977 C 811.814 172.375, 798.237 144.332, 774.872 133.179 C 759.756 125.963, 757.869 125.737, 709.500 125.346 C 672.444 125.046, 666.123 125.208, 663.775 126.518 M 706 200 L 706 237 721.385 237 C 740.661 237, 745.241 235.757, 752.623 228.521 C 759.899 221.389, 762.259 214.735, 762.385 201 C 762.498 188.726, 760.988 181.834, 756.800 175.511 C 750.719 166.331, 740.961 163.040, 719.750 163.016 L 706 163 706 200 M 294.077 225.589 L 291 228.178 291 298.634 L 291 369.091 293.455 371.545 C 295.879 373.970, 296.132 374, 313.899 374 C 331.474 374, 331.953 373.944, 334.694 371.587 L 337.500 369.173 337.500 298.500 L 337.500 227.827 334.694 225.413 C 331.961 223.063, 331.438 223, 314.521 223 C 297.296 223, 297.128 223.021, 294.077 225.589 M 775 357 C 775 358.333, 775.667 359, 777 359 C 778.822 359, 779 359.667, 779 366.500 C 779 373.833, 779.056 374, 781.500 374 C 783.944 374, 784 373.833, 784 366.500 C 784 359.667, 784.178 359, 786 359 C 787.333 359, 788 358.333, 788 357 C 788 355.205, 787.333 355, 781.500 355 C 775.667 355, 775 355.205, 775 357 M 791 364.437 C 791 373.333, 791.139 374, 793 374 C 794.731 374, 795.016 373.295, 795.116 368.750 L 795.233 363.500 796.774 368.799 C 798.044 373.166, 798.673 374.045, 800.347 373.799 C 801.853 373.577, 802.696 372.250, 803.607 368.665 C 805.335 361.867, 806 361.775, 806 368.333 C 806 373.333, 806.235 374, 808 374 C 809.860 374, 810 373.333, 810 364.500 L 810 355 806.600 355 C 803.341 355, 803.149 355.211, 801.987 360.054 C 800.619 365.757, 799.955 365.686, 798.458 359.680 C 797.533 355.969, 797.056 355.465, 794.208 355.187 L 791 354.873 791 364.437" stroke="none" fill="#adcc4e" fill-rule="evenodd"/><path d="M 0 250.001 L 0 500.002 460.250 499.751 L 920.500 499.500 920.752 249.750 L 921.004 0 460.502 0 L 0 0 0 250.001 M 0.492 250.500 C 0.492 388, 0.608 444.101, 0.750 375.170 C 0.892 306.238, 0.892 193.738, 0.750 125.170 C 0.608 56.601, 0.492 113, 0.492 250.500 M 113.400 128.400 L 110 131.800 110 249.977 L 110 368.154 112.923 371.077 L 115.846 374 133.969 374 C 151.876 374, 152.120 373.971, 154.545 371.545 L 157 369.091 157 319.045 L 157 269 198.566 269 C 228.249 269, 240.756 268.667, 242.316 267.837 C 246.694 265.505, 246.935 264.331, 246.968 245.205 C 247 227.094, 246.975 226.884, 244.545 224.455 L 242.091 222 199.528 222 L 156.965 222 157.233 197.250 L 157.500 172.500 200.339 172 L 243.178 171.500 245.089 169.139 C 246.815 167.007, 247 165.004, 247 148.478 L 247 130.178 243.923 127.589 L 240.847 125 178.823 125 L 116.800 125 113.400 128.400 M 294.107 127.563 L 291.060 130.127 290.780 158.064 C 290.626 173.430, 290.753 186.001, 291.062 186.001 C 291.370 186, 294.043 183.075, 297 179.500 L 302.377 173 315.787 173 C 330.570 173, 334.827 171.870, 336.861 167.405 C 338.612 163.564, 338.382 133.638, 336.575 130.145 C 334.246 125.641, 331.375 125, 313.530 125 C 297.413 125, 297.105 125.041, 294.107 127.563 M 392.775 126.559 C 391.276 127.372, 389.589 128.900, 389.025 129.953 C 387.479 132.841, 387.614 366.407, 389.163 369.316 C 391.682 374.045, 390.164 373.935, 453.295 373.968 L 513.091 374 515.545 371.545 C 517.970 369.121, 518 368.868, 518 351.101 C 518 333.528, 517.944 333.047, 515.588 330.306 L 513.175 327.500 474.088 327.206 L 435 326.912 435 229.906 C 435 124.534, 435.225 128.790, 429.528 126.195 C 425.503 124.361, 396.292 124.650, 392.775 126.559 M 566.500 125.912 C 565.400 126.381, 563.600 127.764, 562.500 128.987 C 560.524 131.184, 560.500 132.618, 560.500 250.192 L 560.500 369.173 563.306 371.587 C 566.047 373.944, 566.526 374, 584.101 374 C 601.868 374, 602.121 373.970, 604.545 371.545 L 607 369.091 607 250.101 L 607 131.112 604.589 128.306 L 602.178 125.500 585.339 125.280 C 576.077 125.159, 567.600 125.443, 566.500 125.912 M 663.775 126.518 C 662.276 127.354, 660.589 128.900, 660.025 129.953 C 659.341 131.230, 659 171.379, 659 250.480 L 659 369.091 661.455 371.545 C 663.879 373.970, 664.132 374, 681.899 374 C 699.472 374, 699.953 373.944, 702.694 371.587 L 705.500 369.174 705.779 323.587 L 706.059 278 720.569 278 C 756.388 278, 772.199 273.017, 788.530 256.582 C 801.492 243.538, 808.144 227.271, 809.634 204.977 C 811.814 172.375, 798.237 144.332, 774.872 133.179 C 759.756 125.963, 757.869 125.737, 709.500 125.346 C 672.444 125.046, 666.123 125.208, 663.775 126.518 M 706 200 L 706 237 721.385 237 C 740.661 237, 745.241 235.757, 752.623 228.521 C 759.899 221.389, 762.259 214.735, 762.385 201 C 762.498 188.726, 760.988 181.834, 756.800 175.511 C 750.719 166.331, 740.961 163.040, 719.750 163.016 L 706 163 706 200 M 294.077 225.589 L 291 228.178 291 298.634 L 291 369.091 293.455 371.545 C 295.879 373.970, 296.132 374, 313.899 374 C 331.474 374, 331.953 373.944, 334.694 371.587 L 337.500 369.173 337.500 298.500 L 337.500 227.827 334.694 225.413 C 331.961 223.063, 331.438 223, 314.521 223 C 297.296 223, 297.128 223.021, 294.077 225.589 M 775 357 C 775 358.333, 775.667 359, 777 359 C 778.822 359, 779 359.667, 779 366.500 C 779 373.833, 779.056 374, 781.500 374 C 783.944 374, 784 373.833, 784 366.500 C 784 359.667, 784.178 359, 786 359 C 787.333 359, 788 358.333, 788 357 C 788 355.205, 787.333 355, 781.500 355 C 775.667 355, 775 355.205, 775 357 M 791 364.437 C 791 373.333, 791.139 374, 793 374 C 794.731 374, 795.016 373.295, 795.116 368.750 L 795.233 363.500 796.774 368.799 C 798.044 373.166, 798.673 374.045, 800.347 373.799 C 801.853 373.577, 802.696 372.250, 803.607 368.665 C 805.335 361.867, 806 361.775, 806 368.333 C 806 373.333, 806.235 374, 808 374 C 809.860 374, 810 373.333, 810 364.500 L 810 355 806.600 355 C 803.341 355, 803.149 355.211, 801.987 360.054 C 800.619 365.757, 799.955 365.686, 798.458 359.680 C 797.533 355.969, 797.056 355.465, 794.208 355.187 L 791 354.873 791 364.437" stroke="none" fill="#fbfbfb" fill-rule="evenodd"/></svg>